<?xml version="1.0" standalone="no"?>
<!DOCTYPE svg PUBLIC "-//W3C//DTD SVG 20010904//EN"
 "http://www.w3.org/TR/2001/REC-SVG-20010904/DTD/svg10.dtd">
<svg version="1.0" xmlns="http://www.w3.org/2000/svg"
 width="1000.000000pt" height="980.000000pt" viewBox="0 0 1000.000000 980.000000"
 preserveAspectRatio="xMidYMid meet">

<g transform="translate(0.000000,980.000000) scale(0.100000,-0.100000)"
fill="#000000" stroke="none">
<path d="M4590 9729 c-394 -35 -716 -101 -1105 -226 -442 -141 -926 -387
-1293 -657 -327 -240 -525 -417 -786 -706 -328 -364 -616 -806 -806 -1235 -12
-27 -30 -68 -40 -90 -81 -176 -188 -499 -250 -755 -138 -564 -172 -1250 -89
-1820 25 -175 68 -394 99 -510 198 -727 479 -1291 917 -1840 72 -90 85 -105
266 -304 95 -104 302 -294 451 -414 67 -53 130 -105 141 -115 38 -35 391 -267
505 -332 587 -337 1248 -546 1955 -616 190 -19 739 -16 920 4 609 71 1132 221
1634 470 164 82 196 99 341 185 90 53 305 196 376 249 142 106 177 133 269
212 432 368 800 811 1082 1301 242 419 451 990 542 1478 63 335 76 490 76 902
0 438 -9 547 -71 890 -117 635 -373 1268 -725 1790 -107 159 -124 182 -209
290 -41 52 -82 104 -90 116 -16 24 -122 142 -240 268 -78 83 -271 264 -374
350 -498 419 -1105 748 -1701 924 -345 102 -592 150 -965 187 -169 16 -662 19
-830 4z m810 -80 c583 -50 1184 -220 1707 -482 642 -322 1260 -839 1663 -1390
19 -26 48 -64 64 -85 167 -218 413 -661 542 -977 162 -398 273 -831 319 -1243
57 -513 40 -974 -52 -1447 -87 -452 -228 -864 -425 -1250 -71 -138 -113 -217
-130 -246 -113 -185 -167 -266 -255 -387 -183 -249 -249 -327 -469 -552 -286
-294 -550 -506 -886 -714 -59 -36 -110 -66 -112 -66 -2 0 -33 -18 -68 -39 -75
-45 -345 -182 -415 -210 -27 -10 -100 -40 -163 -65 -219 -89 -570 -192 -815
-240 -346 -68 -616 -90 -1005 -83 -168 3 -343 10 -390 17 -280 37 -402 58
-640 110 -49 10 -117 28 -170 45 -25 8 -106 34 -180 56 -237 74 -625 243 -822
358 -257 151 -370 224 -538 350 -661 495 -1181 1151 -1515 1911 -246 559 -375
1152 -391 1795 -6 240 11 571 37 735 64 391 124 648 204 870 15 41 31 89 35
105 29 110 222 533 322 707 117 205 235 389 313 488 28 36 58 76 67 90 35 55
256 311 351 408 103 105 344 327 427 393 462 369 964 643 1505 820 395 130
856 215 1265 233 126 5 488 -3 620 -15z"/>
<path d="M4929 9386 c-4 -4 -100 -11 -306 -22 -67 -4 -127 -10 -134 -15 -10
-6 -7 -83 11 -359 20 -291 27 -353 39 -359 21 -11 478 22 491 35 13 13 1 142
-14 147 -6 2 -75 -1 -154 -6 -99 -7 -146 -7 -153 0 -6 6 -13 38 -16 70 -4 48
-2 61 10 66 8 3 64 8 123 12 164 9 154 4 154 79 0 48 -4 65 -15 70 -9 3 -73 1
-143 -4 -144 -11 -152 -8 -152 61 0 20 6 41 13 47 6 5 71 13 142 17 72 4 138
12 149 17 16 9 18 17 11 71 -3 34 -12 65 -18 69 -13 8 -31 10 -38 4z"/>
<path d="M5789 9277 c-45 -17 -97 -53 -124 -86 -108 -134 -143 -368 -75 -500
65 -126 269 -195 401 -135 126 58 211 230 210 425 0 180 -117 299 -301 306
-45 2 -89 -2 -111 -10z m174 -169 c10 -5 27 -24 37 -41 49 -80 -1 -305 -78
-349 -65 -38 -155 -7 -179 62 -24 67 12 246 60 298 44 48 104 59 160 30z"/>
<path d="M3921 9259 c-90 -17 -174 -78 -214 -154 -14 -28 -22 -65 -25 -122
-11 -203 88 -407 223 -459 64 -24 185 -14 254 20 86 44 141 137 141 238 0 46
-6 49 -97 51 l-67 2 -8 -49 c-8 -56 -35 -90 -86 -107 -72 -24 -129 34 -163
164 -31 121 -21 191 36 235 43 34 87 29 135 -14 l41 -37 64 34 c46 24 65 40
65 53 0 11 -26 45 -57 77 -77 76 -129 90 -242 68z"/>
<path d="M6545 9038 c-51 -117 -68 -156 -85 -193 -17 -38 -94 -211 -127 -285
-8 -19 -24 -53 -34 -76 -25 -53 -24 -63 8 -75 15 -6 48 -21 74 -34 25 -12 51
-20 57 -16 9 6 49 88 87 181 35 85 39 86 160 30 48 -22 90 -38 95 -35 14 9 50
90 50 113 0 12 -5 22 -11 22 -6 0 -39 13 -72 29 -34 15 -72 31 -84 35 -11 4
-24 13 -27 21 -6 18 31 104 48 111 7 3 63 -18 124 -45 62 -28 118 -48 125 -45
15 6 45 70 49 103 2 18 -4 28 -22 38 -68 37 -360 163 -377 163 -13 0 -25 -14
-38 -42z"/>
<path d="M3207 9009 c-32 -17 -60 -36 -63 -43 -4 -11 57 -150 126 -287 26 -50
12 -72 -27 -42 -15 12 -95 67 -177 123 l-149 102 -66 -31 c-36 -17 -70 -37
-76 -45 -7 -11 12 -58 71 -178 45 -90 114 -232 154 -315 51 -106 78 -153 90
-153 22 0 113 45 129 63 10 13 2 36 -49 139 -34 68 -68 135 -76 150 -8 14 -14
33 -14 42 0 17 25 22 35 7 3 -6 66 -50 139 -99 74 -50 147 -100 163 -111 l29
-22 77 37 c42 20 77 40 77 45 0 4 -54 120 -121 256 -66 136 -134 276 -151 311
-39 82 -49 87 -121 51z"/>
<path d="M2402 8544 c-66 -49 -71 -59 -47 -89 9 -11 94 -132 191 -270 221
-317 207 -300 236 -272 7 7 34 28 61 45 26 18 47 39 47 47 0 8 -58 96 -129
197 -72 101 -162 229 -202 286 -40 56 -77 102 -84 102 -6 0 -39 -21 -73 -46z"/>
<path d="M7545 8466 c-73 -18 -106 -39 -179 -111 -115 -115 -174 -257 -156
-371 5 -30 12 -60 16 -67 24 -42 84 -102 131 -133 96 -62 182 -63 280 -6 57
33 67 66 33 110 -11 15 -29 38 -39 51 l-18 25 -55 -29 c-52 -27 -59 -28 -96
-17 -44 14 -82 61 -82 103 0 39 43 119 98 185 63 75 121 103 178 84 50 -17 77
-62 70 -117 -6 -49 2 -57 87 -88 67 -25 72 -19 84 107 3 40 0 66 -12 91 -38
80 -128 157 -207 177 -67 17 -84 18 -133 6z"/>
<path d="M2041 8266 c-28 -30 -51 -59 -51 -65 0 -11 161 -300 209 -375 17 -26
31 -55 31 -62 0 -29 -1 -29 -336 175 -55 33 -107 61 -115 61 -21 0 -130 -113
-121 -126 4 -6 48 -33 97 -59 50 -27 112 -61 138 -77 26 -15 50 -28 52 -28 3
0 61 -31 130 -70 69 -38 127 -70 130 -70 3 0 23 -11 45 -25 22 -14 48 -25 57
-25 10 0 49 29 86 64 l68 63 -121 244 c-67 134 -137 273 -156 309 -19 35 -34
69 -34 75 -1 17 -26 45 -42 45 -8 0 -38 -24 -67 -54z"/>
<path d="M4665 8304 c-744 -73 -1404 -363 -1972 -866 -428 -379 -777 -916
-957 -1474 -114 -355 -160 -656 -160 -1044 0 -311 28 -550 95 -814 132 -522
354 -955 707 -1378 44 -54 83 -107 87 -118 3 -11 11 -20 16 -20 5 0 49 -37 97
-83 598 -566 1260 -878 2057 -969 142 -16 547 -16 695 0 324 35 674 123 953
238 70 29 294 131 317 145 360 213 569 370 800 599 231 230 416 477 592 790
35 63 69 124 76 135 15 26 101 244 141 357 301 857 241 1819 -166 2633 -225
450 -582 881 -978 1181 -690 523 -1555 771 -2400 688z m575 -141 l62 -6 -6
-106 c-3 -58 -11 -221 -16 -361 -6 -140 -15 -354 -20 -475 -6 -121 -13 -294
-16 -385 l-7 -165 -69 -73 -70 -74 24 -26 c58 -64 1245 -1328 1598 -1702 81
-85 189 -201 241 -257 l94 -102 505 -2 c421 -2 584 -4 643 -8 16 -2 0 -96 -48
-296 -37 -151 -149 -478 -183 -532 -11 -18 -154 0 -252 32 -41 13 -104 31
-140 40 -36 9 -92 26 -125 38 -51 18 -83 21 -215 21 -150 0 -158 -1 -255 -33
-154 -52 -384 -110 -441 -110 -62 -1 -242 48 -344 94 -88 39 -312 88 -362 79
-73 -13 -148 -38 -248 -83 l-105 -46 -145 0 -145 1 -91 41 c-110 50 -205 67
-345 61 -86 -3 -113 -9 -159 -30 -143 -69 -287 -104 -373 -93 -29 4 -128 31
-222 60 -258 81 -321 97 -388 96 -61 0 -73 -3 -284 -80 -183 -67 -314 -75
-528 -32 -131 27 -376 38 -470 22 -38 -7 -102 -25 -140 -41 -44 -17 -95 -29
-135 -31 l-64 -4 -39 95 c-51 124 -110 303 -141 426 -29 114 -68 325 -62 332
3 2 265 3 582 3 l578 -2 1048 1048 1048 1048 -89 90 -90 90 -20 210 c-11 116
-30 302 -41 415 -11 113 -31 327 -45 475 -14 149 -27 284 -30 302 -5 30 -4 32
27 36 57 7 452 7 518 0z m-686 -45 c3 -13 35 -228 71 -478 37 -250 71 -482 76
-515 34 -208 47 -301 43 -305 -3 -2 -65 56 -139 130 l-135 134 -38 -37 -39
-38 -22 58 c-13 32 -29 74 -37 93 -7 19 -66 179 -129 355 -64 176 -129 355
-146 397 -43 113 -42 118 11 134 25 8 106 27 180 44 262 58 297 61 304 28z
m1102 -14 c124 -25 280 -67 292 -78 3 -4 -1 -41 -10 -84 -10 -42 -29 -131 -43
-197 -14 -66 -37 -172 -50 -235 -54 -260 -104 -482 -110 -488 -3 -3 -21 10
-40 28 l-35 34 -176 -174 -175 -175 5 55 c4 30 15 154 26 275 47 522 90 984
96 1028 l6 49 47 -7 c25 -3 101 -17 167 -31z m-1769 -136 c6 -7 26 -53 46
-103 20 -49 79 -191 132 -315 53 -124 118 -277 145 -340 26 -63 62 -150 80
-193 l33 -79 -134 -134 c-73 -74 -137 -134 -141 -134 -5 0 -8 5 -8 10 0 6 -39
79 -86 163 -48 84 -125 220 -172 302 -46 83 -105 186 -130 230 -25 44 -65 115
-88 158 -24 42 -65 113 -90 157 -25 44 -42 85 -38 91 12 20 402 198 435 199 4
0 11 -6 16 -12z m2321 -30 c131 -51 422 -196 422 -210 0 -6 -26 -61 -59 -122
-32 -61 -90 -172 -129 -246 -38 -74 -88 -169 -110 -210 -65 -121 -180 -339
-220 -417 -20 -40 -40 -73 -46 -73 -5 0 -23 15 -40 33 -103 110 -211 230 -214
237 -2 5 2 26 8 47 6 21 29 103 50 183 21 80 45 170 53 200 9 30 43 159 77
285 78 294 90 335 96 335 3 0 54 -19 112 -42z m-2842 -330 c31 -51 81 -129
109 -173 29 -44 64 -100 80 -125 15 -25 59 -96 99 -157 39 -62 103 -162 141
-223 39 -61 98 -155 132 -208 34 -53 63 -102 63 -107 0 -6 -51 -61 -113 -123
l-114 -113 -74 88 c-41 48 -130 153 -199 234 -69 80 -156 183 -195 229 -38 46
-101 120 -140 164 -38 45 -90 106 -115 135 -25 30 -69 81 -97 115 -29 33 -53
64 -53 67 0 22 375 289 405 289 7 0 40 -42 71 -92z m3473 -8 c93 -64 179 -130
264 -203 l67 -58 -103 -127 c-57 -70 -141 -174 -188 -231 -46 -57 -106 -132
-134 -166 -27 -34 -77 -95 -110 -135 -129 -157 -169 -207 -217 -267 -27 -35
-55 -63 -62 -63 -11 0 -183 178 -214 222 -16 22 -35 -14 228 428 106 179 214
361 240 405 108 184 145 245 151 245 3 0 38 -22 78 -50z m-3934 -417 c65 -71
191 -204 280 -298 89 -93 240 -253 335 -355 96 -102 179 -188 185 -192 10 -7
-271 -298 -287 -298 -5 0 -36 25 -71 57 -74 67 -86 78 -297 263 -91 79 -167
147 -170 150 -10 10 -106 96 -174 155 -141 122 -282 250 -285 258 -8 22 327
387 354 387 7 0 65 -57 130 -127z m4576 -163 c49 -58 89 -110 89 -116 0 -10
-143 -140 -296 -269 -32 -27 -81 -70 -109 -96 -27 -25 -68 -61 -91 -80 -79
-66 -249 -213 -254 -219 -18 -21 -200 -170 -208 -170 -13 0 -192 195 -192 210
0 10 116 148 155 185 5 6 66 73 135 150 68 77 127 142 130 145 12 12 204 225
314 348 l119 133 60 -58 c32 -32 99 -105 148 -163z m-5066 -280 c39 -31 138
-111 220 -177 529 -422 720 -576 723 -582 1 -3 -59 -67 -133 -141 l-135 -135
-28 16 c-27 16 -127 78 -362 224 -69 43 -199 123 -290 178 -91 56 -167 104
-170 107 -3 3 -39 25 -80 49 -120 70 -116 60 -68 154 77 155 225 380 242 370
6 -4 43 -32 81 -63z m5312 -47 c93 -145 232 -400 221 -407 -3 -3 -397 -255
-508 -326 -39 -25 -156 -100 -260 -167 -105 -68 -194 -123 -198 -123 -15 0
-315 332 -305 338 11 8 389 305 742 584 130 103 239 187 243 187 5 1 33 -38
65 -86z m-5640 -532 c49 -26 120 -65 158 -86 39 -21 92 -51 118 -67 26 -15 50
-28 52 -28 2 0 30 -15 62 -34 32 -18 94 -52 138 -76 44 -23 109 -59 145 -80
36 -21 103 -58 150 -83 47 -26 92 -51 100 -56 12 -9 -11 -36 -119 -145 l-134
-135 -336 171 c-185 94 -385 198 -445 230 -60 32 -113 58 -118 58 -13 0 -10
15 21 108 26 76 39 114 90 245 6 15 15 27 21 27 5 0 49 -22 97 -49z m5944 -58
c11 -27 36 -94 55 -152 40 -118 42 -110 -47 -166 -24 -16 -73 -47 -109 -70
-138 -88 -360 -232 -484 -312 -72 -46 -135 -82 -141 -81 -14 4 -249 256 -253
271 -3 14 -17 6 276 174 130 75 296 170 367 211 213 123 300 172 308 172 4 0
17 -21 28 -47z m-5968 -519 c128 -58 246 -111 262 -119 71 -31 135 -60 210
-95 44 -20 95 -42 113 -49 17 -8 32 -16 32 -20 0 -3 -58 -64 -129 -135 l-130
-130 -193 63 c-106 34 -258 84 -338 111 l-145 48 2 68 c2 64 47 336 59 355 3
5 10 9 15 9 6 0 115 -48 242 -106z m6126 -21 c24 -118 55 -342 49 -348 -2 -3
-101 -38 -219 -79 -118 -41 -259 -91 -314 -110 l-100 -36 -100 107 c-102 108
-130 142 -124 148 2 2 76 45 164 96 88 50 219 126 290 167 272 157 319 181
327 167 5 -7 17 -58 27 -112z m-6302 -493 c81 -22 213 -57 293 -77 80 -21 147
-39 150 -41 2 -1 -77 -84 -175 -183 l-180 -181 -120 7 c-66 4 -122 9 -125 11
-10 11 -12 504 -2 504 6 0 77 -18 159 -40z m6363 -184 c0 -95 -3 -194 -6 -219
-7 -52 -6 -52 -179 -62 l-100 -7 -133 146 c-73 80 -133 149 -132 153 1 4 96
36 213 70 117 34 230 69 252 77 22 7 50 14 63 15 l22 1 0 -174z m-711 -1407
c80 -28 173 -55 206 -61 74 -13 115 -27 115 -40 0 -6 -12 -32 -26 -58 l-26
-47 -130 48 c-178 67 -309 106 -396 119 -98 16 -163 4 -382 -70 -303 -102
-368 -101 -701 11 -300 101 -374 103 -560 16 -233 -110 -291 -111 -589 -10
-149 50 -173 55 -250 55 -74 0 -97 -4 -180 -37 -232 -90 -250 -95 -345 -95
-84 0 -103 5 -285 65 -304 102 -376 110 -520 59 -36 -12 -112 -39 -170 -60
-146 -52 -269 -57 -490 -20 -201 34 -344 42 -462 27 -151 -20 -199 -31 -205
-48 -5 -12 -9 -11 -18 8 -12 22 -10 25 39 55 122 76 362 94 636 48 223 -37
347 -32 520 24 167 54 264 67 372 53 81 -11 128 -22 310 -74 210 -60 277 -59
512 14 215 67 275 65 641 -18 215 -49 312 -50 435 -3 285 109 317 112 507 54
372 -113 462 -115 823 -23 339 86 392 86 619 8z m-1447 -285 c67 -20 173 -47
233 -61 187 -43 388 -32 550 32 76 30 290 65 398 65 119 0 244 -33 367 -95 55
-28 59 -38 30 -75 l-19 -25 -73 37 c-40 21 -113 50 -163 65 -76 24 -107 28
-200 28 -109 -1 -111 -1 -306 -68 -245 -84 -321 -96 -440 -73 -46 10 -142 38
-214 62 -180 63 -251 83 -347 98 -104 17 -174 3 -271 -55 -113 -67 -190 -93
-282 -92 -72 0 -100 6 -279 66 -281 95 -284 94 -608 -31 -94 -37 -116 -42
-190 -42 -77 0 -98 5 -308 77 -205 70 -233 77 -320 81 l-95 4 -168 -61 c-255
-93 -296 -96 -636 -46 -149 21 -382 33 -461 23 -16 -2 -26 2 -28 13 -2 13 15
20 81 34 109 23 306 16 457 -15 88 -18 129 -21 250 -17 138 4 151 6 280 48
l135 43 155 0 c154 -1 156 -1 315 -47 88 -26 197 -52 241 -59 95 -14 160 -3
359 58 109 34 130 37 235 37 118 0 205 -14 430 -71 79 -19 131 -26 212 -26
l106 -1 94 48 c176 90 280 99 480 41z m63 -297 c363 -99 417 -99 790 -3 178
46 287 60 389 52 45 -4 114 -9 154 -13 39 -3 72 -9 72 -13 0 -9 -75 -105 -88
-114 -5 -3 -23 1 -39 9 -118 59 -289 59 -448 0 -393 -145 -430 -145 -840 -2
-243 86 -330 83 -542 -15 l-137 -63 -111 0 c-109 0 -112 1 -280 59 -257 90
-325 89 -542 -5 -136 -60 -196 -73 -288 -66 -68 5 -103 15 -324 92 -254 88
-333 87 -581 -10 -52 -21 -136 -45 -186 -53 -85 -15 -100 -15 -230 3 -178 25
-310 26 -345 3 -26 -16 -26 -16 -65 30 -78 92 -75 87 -45 88 14 1 58 5 96 9
57 6 97 2 210 -20 125 -25 155 -27 285 -23 127 5 157 9 240 36 259 85 376 83
685 -11 130 -39 148 -42 255 -41 107 0 123 3 243 42 204 67 327 72 551 21 216
-49 324 -69 371 -69 73 0 154 22 295 80 121 49 128 51 205 47 53 -3 137 -20
250 -50z m1155 -259 c0 -12 -101 -104 -111 -101 -22 7 -177 -37 -334 -93 -113
-41 -202 -68 -240 -71 -82 -7 -193 17 -410 89 -204 68 -286 88 -365 88 -75 0
-114 -12 -265 -83 -122 -57 -135 -61 -215 -65 -82 -3 -91 -2 -260 57 -299 103
-349 102 -620 -12 -106 -45 -188 -59 -272 -47 -35 5 -151 39 -258 74 -306 102
-348 103 -585 16 -143 -52 -191 -64 -340 -81 -55 -6 -103 -12 -106 -12 -8 -2
-160 125 -156 129 2 2 47 0 101 -5 90 -9 207 -3 321 15 22 4 94 25 160 47 116
40 124 41 255 41 l135 1 185 -55 c184 -55 186 -55 315 -55 123 1 136 3 235 37
236 82 315 81 695 -9 132 -31 162 -35 250 -31 94 4 108 7 245 63 140 56 148
59 235 58 76 0 108 -6 205 -37 172 -55 282 -77 407 -83 129 -7 168 0 405 63
92 24 200 51 240 58 40 8 84 19 98 24 25 10 50 0 50 -20z m-3516 -353 c28 -7
106 -28 172 -48 175 -52 263 -62 372 -43 48 9 137 32 197 52 136 45 248 54
375 31 47 -9 135 -25 196 -36 61 -12 131 -28 155 -36 115 -41 231 -29 394 40
57 24 124 49 149 56 67 17 186 6 291 -26 266 -81 388 -98 555 -76 47 6 94 12
104 14 44 5 20 -21 -62 -70 -175 -104 -155 -96 -184 -74 -14 11 -65 29 -114
40 -49 10 -115 31 -147 45 -122 53 -249 88 -344 93 -114 7 -155 -3 -304 -73
-127 -60 -206 -79 -283 -69 -28 4 -132 33 -231 65 -100 33 -209 62 -245 65
-81 9 -170 -11 -295 -64 -223 -96 -288 -96 -575 2 -107 36 -224 71 -260 77
-116 21 -223 0 -364 -73 l-68 -35 -32 20 c-17 11 -46 29 -64 40 -44 27 -28 38
59 38 40 0 89 8 125 20 139 48 295 57 428 25z m-24 -287 c30 -6 110 -27 177
-48 244 -76 338 -77 558 -7 225 72 270 72 610 -5 150 -34 199 -41 290 -42
l110 0 150 58 c134 52 160 59 240 63 84 4 96 2 188 -31 63 -23 116 -36 147
-36 28 0 50 -4 50 -8 0 -4 -23 -18 -51 -30 -46 -19 -54 -20 -72 -7 -12 8 -34
15 -49 15 -16 0 -61 9 -100 20 -88 24 -195 26 -269 4 -30 -9 -103 -38 -162
-66 -60 -27 -133 -54 -164 -59 -72 -13 -166 1 -303 47 -58 20 -154 47 -215 60
-153 35 -200 27 -412 -70 -87 -40 -113 -47 -185 -52 -45 -3 -108 -10 -138 -15
-53 -10 -63 -8 -200 36 -146 48 -322 119 -415 168 l-50 27 105 -6 c58 -3 130
-10 160 -16z"/>
<path d="M4280 5664 l-745 -746 230 6 c127 3 705 9 1285 12 580 4 1133 9 1228
13 l172 6 -374 374 -374 374 -48 -40 c-39 -31 -285 -227 -303 -240 -3 -2 28
-37 69 -78 l74 -75 -479 0 -479 0 239 240 c132 132 244 240 250 240 5 0 66
-56 135 -125 l125 -125 163 163 162 162 -293 293 -292 292 -745 -746z"/>
<path d="M5113 4823 l-153 -4 0 -92 c0 -50 -3 -136 -7 -189 l-6 -98 91 0 92 0
0 43 c0 23 4 48 8 55 7 9 56 12 210 10 239 -2 237 -3 237 91 0 50 -5 66 -30
102 -53 75 -73 84 -188 85 -56 0 -171 -1 -254 -3z m315 -99 c26 -18 29 -56 6
-79 -14 -13 -38 -15 -153 -13 l-136 3 -3 53 -3 52 133 0 c105 0 138 -3 156
-16z"/>
<path d="M4300 4715 c-58 -58 -144 -139 -191 -182 l-86 -78 94 -3 95 -3 44 41
44 40 119 0 120 0 37 -45 c34 -42 40 -45 84 -45 80 0 112 10 107 32 -3 11 -50
93 -104 184 l-98 164 -80 -1 -80 0 -105 -104z m191 -50 c16 -35 29 -69 29 -75
0 -6 -37 -10 -95 -10 -68 0 -95 3 -95 12 0 11 118 138 128 138 2 0 16 -29 33
-65z"/>
<path d="M3359 4663 c-68 -81 -132 -157 -142 -170 l-18 -23 304 0 305 0 36 49
c20 27 36 51 36 55 0 3 -81 6 -180 6 -99 0 -180 3 -180 8 0 4 11 25 23 47 l23
40 194 3 195 3 38 58 c20 33 37 62 37 65 0 3 -123 6 -273 6 l-274 0 -124 -147z"/>
<path d="M5660 4798 c0 -6 19 -87 42 -179 l42 -167 36 -6 c61 -10 160 -7 160
5 0 6 -25 90 -56 185 l-57 174 -83 0 c-58 0 -84 -4 -84 -12z"/>
<path d="M5966 4788 c3 -13 13 -35 21 -50 13 -28 14 -28 118 -28 58 0 105 -3
105 -7 0 -4 -28 -36 -62 -70 l-62 -62 19 -56 c11 -31 22 -60 25 -66 4 -6 129
-8 323 -7 l317 3 -50 62 -50 62 -142 3 -142 3 82 69 82 69 -25 41 -24 41 -103
6 c-57 4 -179 7 -271 8 l-168 1 7 -22z"/>
<path d="M3740 4313 c0 -5 60 -27 133 -51 72 -24 364 -119 648 -213 284 -93
526 -169 538 -169 11 0 83 23 159 51 75 28 292 107 482 175 449 163 531 194
550 204 9 6 -499 10 -1247 10 -695 0 -1263 -3 -1263 -7z"/>
<path d="M8298 7839 c-26 -14 -553 -244 -606 -263 -66 -25 -65 -31 10 -117
l48 -53 45 22 c61 30 78 28 107 -10 14 -18 42 -51 61 -73 20 -22 37 -47 37
-56 0 -9 -14 -33 -30 -54 -17 -21 -29 -42 -28 -46 3 -7 52 -68 95 -118 27 -32
27 -31 97 84 29 50 85 142 124 205 39 63 92 151 118 195 26 44 56 91 66 104
10 13 18 29 18 35 0 14 -106 133 -129 145 -10 6 -23 6 -33 0z m-61 -205 c3 -8
-3 -27 -14 -42 -49 -67 -90 -128 -96 -144 -3 -10 -15 -18 -25 -18 -21 0 -96
84 -90 101 3 9 194 117 211 118 4 1 10 -6 14 -15z"/>
<path d="M1484 7576 c-103 -32 -199 -142 -225 -254 -13 -57 3 -143 35 -196 42
-70 134 -153 219 -197 71 -37 92 -43 160 -47 57 -3 89 0 121 12 55 21 125 90
166 163 45 79 48 171 9 253 -55 115 -206 233 -339 264 -77 19 -92 19 -146 2z
m132 -187 c63 -28 159 -103 184 -144 42 -68 16 -151 -57 -182 -49 -20 -120 3
-203 66 -81 61 -115 116 -107 174 6 47 51 93 96 100 14 2 29 5 32 6 4 0 28 -9
55 -20z"/>
<path d="M8430 7099 c-162 -98 -296 -182 -298 -188 -6 -18 74 -136 95 -139 12
-2 46 13 76 32 31 20 60 36 64 36 4 0 19 9 33 20 39 31 55 24 102 -42 24 -33
60 -75 81 -92 35 -28 45 -31 111 -31 64 0 78 4 128 34 95 57 139 134 124 214
-10 51 -183 337 -204 336 -9 -1 -150 -81 -312 -180z m326 -91 c35 -73 1 -138
-72 -138 -39 0 -97 59 -92 93 3 22 99 87 129 87 8 0 24 -19 35 -42z"/>
<path d="M1025 6825 c-22 -8 -51 -28 -65 -44 -36 -43 -52 -78 -142 -301 -6
-14 -14 -33 -19 -42 -17 -33 -10 -66 14 -73 12 -4 36 -13 52 -21 38 -16 158
-65 394 -160 132 -52 188 -71 197 -63 7 5 24 39 39 74 22 50 25 68 16 79 -6 7
-65 35 -131 62 -127 50 -140 63 -99 99 16 15 44 20 142 26 67 4 125 5 129 3 3
-2 17 0 31 5 30 12 97 165 79 183 -18 18 -260 4 -305 -18 -33 -16 -39 -16 -47
-4 -6 8 -10 25 -10 38 0 53 -48 109 -120 140 -65 28 -109 33 -155 17z m123
-211 c12 -14 22 -33 22 -42 0 -31 -20 -90 -38 -111 l-17 -21 -58 22 c-74 27
-84 45 -56 100 34 69 59 90 94 84 16 -3 40 -17 53 -32z"/>
<path d="M9042 6485 c-34 -13 -180 -64 -323 -112 -144 -48 -264 -94 -266 -100
-6 -16 47 -154 62 -159 5 -2 129 37 275 88 146 50 294 101 330 113 42 14 66
28 68 40 4 20 -37 137 -52 147 -16 11 -25 9 -94 -17z"/>
<path d="M9214 6041 c-64 -16 -64 -16 -33 -172 12 -59 19 -114 16 -123 -6 -14
-29 -5 -149 59 -311 165 -319 168 -381 161 -100 -13 -98 5 -38 -302 29 -148
56 -272 60 -276 11 -12 130 14 135 29 3 7 -8 84 -25 169 -17 86 -28 158 -24
162 3 4 30 -6 58 -21 29 -16 134 -71 233 -123 189 -98 211 -104 287 -83 33 9
37 13 37 42 0 18 -6 59 -14 92 -7 33 -26 128 -41 210 -15 83 -31 157 -35 165
-8 17 -42 22 -86 11z"/>
<path d="M805 6033 c-11 -2 -30 -6 -42 -8 -28 -6 -80 -51 -97 -84 -15 -28 -76
-316 -76 -356 0 -17 7 -26 23 -29 217 -46 653 -127 669 -124 19 2 24 12 32 58
17 107 16 113 -29 122 -123 24 -192 42 -204 54 -11 10 -12 21 -2 58 17 69 14
151 -8 195 -38 74 -176 133 -266 114z m112 -209 c23 -23 25 -30 19 -77 -4 -28
-9 -54 -12 -56 -9 -9 -137 18 -150 31 -17 17 -2 80 27 109 28 28 84 25 116 -7z"/>
<path d="M880 4775 c-202 -56 -306 -277 -218 -467 54 -117 152 -181 285 -186
109 -5 168 15 244 85 79 74 103 131 103 248 0 79 -3 97 -27 143 -75 143 -238
218 -387 177z m158 -98 c48 -18 118 -77 137 -117 28 -57 31 -147 6 -200 -26
-58 -46 -81 -101 -112 -98 -56 -198 -41 -281 42 -94 94 -94 229 1 331 14 16
75 50 110 62 26 9 94 6 128 -6z"/>
<path d="M8873 4776 c-175 -57 -275 -221 -239 -392 7 -32 21 -74 30 -93 26
-49 95 -114 151 -142 43 -21 64 -24 150 -24 89 0 106 3 151 27 165 87 230 307
137 466 -33 56 -109 121 -169 144 -64 25 -158 31 -211 14z m193 -114 c76 -39
119 -105 130 -196 6 -48 3 -63 -20 -110 -92 -189 -340 -186 -433 4 -11 22 -17
58 -17 96 1 171 187 284 340 206z"/>
<path d="M1580 3275 c-41 -23 -122 -68 -180 -100 -239 -131 -352 -198 -356
-210 -6 -16 54 -125 72 -132 7 -3 59 20 115 51 56 31 107 56 114 56 18 0 38
-26 91 -124 64 -116 110 -168 175 -196 101 -43 205 -11 266 82 24 35 28 52 28
107 0 59 -6 78 -48 166 -63 130 -177 333 -191 338 -6 2 -45 -15 -86 -38z m94
-203 c91 -145 107 -222 57 -273 -56 -55 -128 -31 -188 64 -53 84 -74 129 -68
145 4 15 143 99 167 101 4 1 19 -16 32 -37z"/>
<path d="M8333 3240 c-40 -9 -115 -69 -155 -124 -49 -67 -107 -197 -114 -258
-15 -132 78 -235 195 -213 64 12 111 45 199 138 165 174 157 167 194 167 73 0
97 -81 54 -177 -47 -101 -101 -143 -185 -143 l-51 0 -29 -61 c-32 -66 -31 -87
3 -93 59 -12 82 -13 126 -1 84 22 143 74 214 191 119 196 109 366 -27 436 -55
28 -112 27 -173 -2 -50 -25 -75 -48 -208 -193 -85 -93 -121 -116 -155 -98 -41
23 -37 91 12 174 38 65 71 90 124 97 44 5 49 8 79 60 18 30 33 63 34 73 0 32
-64 45 -137 27z"/>
<path d="M7749 2493 c-83 -86 -174 -183 -291 -311 -32 -35 -58 -67 -58 -72 0
-4 55 -59 122 -122 67 -62 176 -164 242 -227 66 -62 131 -120 144 -129 21 -14
25 -14 42 4 137 141 420 452 420 462 0 14 -56 72 -69 72 -14 0 -42 -27 -187
-185 -75 -82 -144 -151 -153 -153 -19 -3 -141 109 -141 129 0 8 63 81 140 163
77 81 140 153 140 160 0 7 -15 27 -34 45 l-35 34 -27 -22 c-16 -12 -48 -46
-72 -74 -25 -29 -70 -79 -101 -111 -31 -33 -66 -70 -78 -83 -12 -12 -28 -23
-35 -23 -19 0 -108 92 -108 110 0 8 28 44 62 80 34 36 101 107 150 158 48 51
88 99 88 107 0 10 -63 75 -73 75 -2 0 -41 -39 -88 -87z"/>
<path d="M1964 2417 c-88 -84 -201 -190 -252 -236 -51 -46 -92 -91 -92 -100 1
-21 87 -111 107 -111 8 0 47 31 87 68 39 37 89 83 110 101 l40 34 113 -119
c62 -65 113 -126 113 -135 0 -9 -47 -61 -105 -116 -58 -55 -105 -105 -105
-112 0 -7 22 -36 49 -64 48 -50 51 -52 75 -37 13 8 98 85 188 170 90 85 198
187 241 225 42 39 77 77 77 85 0 9 -24 40 -54 69 l-54 53 -98 -91 c-55 -50
-106 -91 -115 -91 -9 0 -28 15 -42 33 -14 17 -62 70 -106 117 -45 46 -81 90
-81 96 0 7 43 52 95 100 52 49 95 94 95 101 0 20 -90 113 -109 112 -9 0 -88
-68 -177 -152z"/>
<path d="M7122 1925 c-28 -20 -52 -41 -52 -47 0 -12 144 -243 206 -331 41 -58
43 -71 7 -64 -25 4 -273 96 -440 162 -34 14 -73 25 -86 25 -31 0 -137 -68
-137 -88 0 -8 20 -44 43 -81 49 -75 136 -209 252 -388 54 -84 85 -123 98 -123
18 0 100 51 112 70 3 5 1 19 -5 31 -10 18 -189 289 -214 324 -5 7 -6 20 -3 29
5 13 11 14 34 5 32 -13 152 -58 263 -99 41 -15 112 -41 156 -58 l82 -31 38 22
c117 67 117 66 82 120 -13 19 -43 66 -68 106 -41 66 -199 309 -252 390 -26 39
-46 61 -56 61 -4 0 -31 -16 -60 -35z"/>
<path d="M2854 1902 c-6 -4 -42 -50 -80 -103 -128 -179 -276 -384 -305 -421
-16 -20 -29 -41 -29 -47 0 -14 103 -91 123 -91 14 0 55 52 257 331 41 57 96
132 123 167 26 35 47 67 47 72 0 10 -107 100 -118 100 -4 0 -12 -4 -18 -8z"/>
<path d="M3222 1657 c-10 -13 -18 -30 -137 -292 -40 -88 -91 -199 -115 -247
-23 -49 -40 -93 -38 -99 2 -6 71 -42 153 -80 83 -39 202 -95 265 -125 64 -29
118 -54 122 -54 10 0 48 70 48 88 -1 18 -4 20 -237 128 -99 46 -143 72 -143
83 0 9 52 128 115 264 63 135 115 256 115 267 0 14 -15 26 -52 43 -76 35 -85
37 -96 24z"/>
<path d="M6300 1480 c-8 -5 -32 -15 -52 -20 -48 -14 -49 -35 -8 -127 17 -36
30 -69 30 -74 0 -4 4 -18 10 -31 5 -13 49 -120 98 -238 70 -171 92 -216 108
-218 11 -2 46 9 78 23 53 24 58 28 53 53 -3 15 -61 164 -129 332 -113 278
-126 305 -148 308 -14 1 -32 -2 -40 -8z"/>
<path d="M3993 1348 c-7 -11 -45 -168 -73 -298 -5 -25 -27 -120 -48 -212 -21
-92 -36 -171 -33 -176 12 -17 130 -43 148 -33 13 6 25 40 41 118 23 105 42
192 97 421 36 151 34 164 -30 179 -67 15 -92 15 -102 1z"/>
<path d="M5537 1275 c-104 -18 -194 -38 -199 -43 -8 -8 0 -75 26 -224 59 -334
86 -472 95 -481 13 -13 149 13 155 29 2 6 -1 41 -8 76 -24 114 -28 174 -14
185 7 5 56 17 108 27 238 43 324 110 325 253 0 80 -30 138 -93 178 -67 42
-156 42 -395 0z m236 -95 c10 0 32 -13 48 -29 22 -23 29 -39 29 -69 0 -60 -43
-93 -156 -121 -144 -34 -142 -35 -164 84 -19 108 -20 107 90 126 52 10 104 15
115 13 11 -2 28 -4 38 -4z"/>
<path d="M4467 1263 c-5 -9 -19 -146 -48 -472 -15 -180 -17 -236 -8 -242 19
-11 140 -22 149 -12 5 4 14 64 22 133 l13 125 175 0 c168 0 177 1 225 26 70
35 115 103 115 173 0 78 -17 123 -61 166 -59 57 -146 79 -379 95 -47 3 -110 8
-141 11 -31 3 -59 2 -62 -3z m356 -145 c61 -12 101 -44 113 -93 9 -36 -29 -91
-73 -106 -38 -12 -221 -8 -244 6 -15 10 -5 181 12 201 12 15 89 12 192 -8z"/>
</g>
</svg>
